<svg width="20" height="20" viewBox="0 0 20 20" fill="none" xmlns="http://www.w3.org/2000/svg">
<path d="M5.83329 1.6665H14.1666C16.4663 1.6665 18.3333 3.53352 18.3333 5.83317V14.1665C18.3333 16.4661 16.4663 18.3332 14.1666 18.3332H5.83329C3.53365 18.3332 1.66663 16.4661 1.66663 14.1665V5.83317C1.66663 3.53352 3.53365 1.6665 5.83329 1.6665V1.6665" stroke="#F6F3F1" stroke-width="1.66667" stroke-linecap="round" stroke-linejoin="round"/>
<path d="M13.3333 9.47484C13.5443 10.8973 12.8192 12.2947 11.5347 12.9412C10.2502 13.5878 8.69588 13.3376 7.67904 12.3208C6.6622 11.304 6.41209 9.74965 7.05861 8.46515C7.70514 7.18065 9.10253 6.45557 10.525 6.6665C11.9775 6.88189 13.118 8.02236 13.3333 9.47484M14.5833 5.4165H14.5917" stroke="#F6F3F1" stroke-width="1.66667" stroke-linecap="round" stroke-linejoin="round"/>
</svg>
