<svg width="32" height="32" viewBox="0 0 32 32" fill="none" xmlns="http://www.w3.org/2000/svg">
<path d="M21.3333 4C19.8616 4 18.6667 5.19489 18.6667 6.66667V14.6667C18.6667 16.1384 19.8616 17.3333 21.3333 17.3333C22.0692 17.3333 22.6667 17.9308 22.6667 18.6667V20C22.6667 21.4718 21.4718 22.6667 20 22.6667C19.2641 22.6667 18.6667 23.2641 18.6667 24V26.6667C18.6667 27.4026 19.2641 28 20 28C24.4153 28 28 24.4153 28 20V6.66667C28 5.19489 26.8051 4 25.3333 4H21.3333M6.66667 4C5.19489 4 4 5.19489 4 6.66667V14.6667C4 16.1384 5.19489 17.3333 6.66667 17.3333C7.40255 17.3333 8 17.9308 8 18.6667V20C8 21.4718 6.80511 22.6667 5.33333 22.6667C4.59745 22.6667 4 23.2641 4 24V26.6667C4 27.4026 4.59745 28 5.33333 28C9.74865 28 13.3333 24.4153 13.3333 20V6.66667C13.3333 5.19489 12.1384 4 10.6667 4H6.66667" stroke="#8E8682" stroke-width="2.66667" stroke-linecap="round" stroke-linejoin="round"/>
</svg>
